# xmcd
#
# Track frame offsets: 
#        150
#        8939
#        14430
#        30011
#        37653
#        47389
#        61264
#        72416
#        94167
#        106306
#        118071
#        131045
#        137955
#        152429
#        163634
#        175559
#        185962
#        194555
#
# Disc length: 2790 seconds
#
# Revision: 0
# Processed by: cddbd v1.5.2PL0 Copyright (c) Steve Scherf et al.
# Submitted via: ExactAudioCopyFreeDBPlugin 1.0
#
DISCID=ea0ae412
DTITLE=Kammermusik Ensemble Freiburg - Geistliche Lieder
DYEAR=2005
DGENRE=Classical
TTITLE0=Die Güte Gottes
TTITLE1=Bitten
TTITLE2=Wider den Übermut
TTITLE3=Trost der Erlösung
TTITLE4=Mein Heiland, meine Zuversicht
TTITLE5=Prüfung am Abend
TTITLE6=Passionslied: Wie? Schönster! den mein Herze liebt
TTITLE7=Passionslied: Erforsche mich, erfahr mein Herz
TTITLE8=Orgel - aus den Flötenstücken: Menuetto I and II
TTITLE9=Der 38. Psalm: Lass mich nicht deinen Zorn empfinden
TTITLE10=Der 88. Psalm: Tag und Nacht, du Heil der Frommen
TTITLE11=Orgel - aus den Flötenstücken: Allegro
TTITLE12=Passionslied: Einst, als dich im Gerichte
TTITLE13=Weihnachtslied
TTITLE14=Der Tag des Weltgerichts
TTITLE15=Der Frühling
TTITLE16=Über die Finsternis kurz vor dem Tode Jesu
TTITLE17=Jesus in Gethsemane
EXTD=
EXTT0=
EXTT1=
EXTT2=
EXTT3=
EXTT4=
EXTT5=
EXTT6=
EXTT7=
EXTT8=
EXTT9=
EXTT10=
EXTT11=
EXTT12=
EXTT13=
EXTT14=
EXTT15=
EXTT16=
EXTT17=
PLAYORDER=
